# Blender 4.3.2
# www.blender.org
mtllib rack_0.mtl
o Plane.001
v -1.421026 -2.471955 1.295386
v -1.421026 2.156887 1.415780
v -1.421026 -2.471955 -1.374750
v -1.421026 2.156887 -1.487093
v 1.714706 -2.471955 1.295386
v 1.714706 2.156887 1.415780
v 1.714706 -2.471955 -1.374750
v 1.714706 2.156887 -1.487093
v -1.421026 -3.303351 -1.509327
v -1.421026 -3.303351 1.429964
v 1.714706 -3.303352 -1.509327
v 1.714706 -3.303352 1.429964
v -1.421026 -3.386952 -1.607548
v -1.421026 -3.386952 1.528185
v 1.714707 -3.386952 1.528185
v 1.714707 -3.386952 -1.607548
v -1.421026 -2.388354 -1.487093
v -1.421026 -2.388354 1.415780
v 1.714706 -2.388354 1.415780
v 1.714706 -2.388354 -1.487093
v -1.125310 -3.250098 -1.232137
v -1.125310 -3.250098 1.152774
v 1.418991 -3.250098 1.152774
v 1.418991 -3.250098 -1.232137
v -1.125311 -2.525208 -1.122942
v -1.125311 -2.525208 1.043579
v 1.418991 -2.525208 1.043579
v 1.418991 -2.525208 -1.122942
v -1.421026 2.558597 1.528185
v -1.421026 2.725320 1.361462
v -1.362743 2.607430 1.410294
v -1.421026 2.725320 -1.440825
v -1.421026 2.558597 -1.607548
v -1.362743 2.607430 -1.489657
v 1.714706 2.558598 -1.607548
v 1.714706 2.725320 -1.440825
v 1.704494 2.607430 -1.489657
v 1.714706 2.725320 1.361462
v 1.714706 2.558598 1.528185
v 1.704494 2.607430 1.410294
v 1.714706 1.601326 -1.487093
v 1.714706 1.576138 -1.487093
v 1.714706 1.033170 -1.487093
v 1.714706 1.007983 -1.487093
v 1.714706 0.465015 -1.487093
v 1.714706 0.439828 -1.487093
v 1.714706 -0.103140 -1.487093
v 1.714706 -0.128327 -1.487093
v 1.714706 -0.671295 -1.487093
v 1.714706 -0.696482 -1.487093
v 1.714706 -1.239450 -1.487093
v 1.714706 -1.264637 -1.487093
v 1.714706 -1.807606 -1.487093
v 1.714706 -1.832793 -1.487093
v -1.421026 -1.832793 -1.487093
v -1.421026 -1.807606 -1.487093
v -1.421026 -1.264638 -1.487093
v -1.421026 -1.239450 -1.487093
v -1.421026 -0.696483 -1.487093
v -1.421026 -0.671295 -1.487093
v -1.421026 -0.128328 -1.487093
v -1.421026 -0.103140 -1.487093
v -1.421026 0.439828 -1.487093
v -1.421026 0.465015 -1.487093
v -1.421026 1.007983 -1.487093
v -1.421026 1.033170 -1.487093
v -1.421026 1.576138 -1.487093
v -1.421026 1.601325 -1.487093
v 1.714706 -1.832793 1.415780
v 1.714706 -1.807606 1.415780
v 1.714706 -1.264637 1.415780
v 1.714706 -1.239450 1.415780
v 1.714706 -0.696483 1.415780
v 1.714706 -0.671295 1.415780
v 1.714706 -0.128328 1.415780
v 1.714706 -0.103140 1.415780
v 1.714706 0.439828 1.415780
v 1.714706 0.465015 1.415780
v 1.714706 1.007983 1.415780
v 1.714706 1.033170 1.415780
v 1.714706 1.576138 1.415780
v 1.714706 1.601326 1.415780
v -1.421026 1.601326 1.415780
v -1.421026 1.576138 1.415780
v -1.421026 1.033170 1.415780
v -1.421026 1.007983 1.415780
v -1.421026 0.465015 1.415780
v -1.421026 0.439828 1.415780
v -1.421026 -0.103140 1.415780
v -1.421026 -0.128327 1.415780
v -1.421026 -0.671295 1.415780
v -1.421026 -0.696482 1.415780
v -1.421026 -1.239450 1.415780
v -1.421026 -1.264637 1.415780
v -1.421026 -1.807606 1.415780
v -1.421026 -1.832793 1.415780
v -1.360720 2.531718 1.067662
v -1.452707 2.435050 1.067662
v -1.360720 2.531718 -0.228987
v -1.452707 2.435050 -0.228987
v -1.360719 2.398583 1.067662
v -1.452706 2.301915 1.067662
v -1.360719 2.398583 -0.228987
v -1.452706 2.301915 -0.228987
v -1.360719 2.274559 1.067662
v -1.452707 2.177891 1.067662
v -1.360719 2.274559 -0.228987
v -1.452707 2.177891 -0.228987
v -1.113637 -2.731388 1.041074
v -1.205624 -2.828056 1.041074
v -1.113637 -2.731388 -1.142412
v -1.205624 -2.828056 -1.142412
v -1.113637 -2.864522 1.041074
v -1.205624 -2.961190 1.041074
v -1.113637 -2.864522 -1.142412
v -1.205624 -2.961190 -1.142412
v -1.113637 -2.607298 1.041074
v -1.205624 -2.703965 1.041074
v -1.113637 -2.607298 -1.142412
v -1.205624 -2.703965 -1.142412
v -1.113637 -2.982505 1.041074
v -1.205624 -3.079172 1.041074
v -1.113637 -2.982505 -1.142412
v -1.205624 -3.079172 -1.142412
v -1.113637 -3.106529 1.041074
v -1.205624 -3.203197 1.041074
v -1.113637 -3.106529 -1.142412
v -1.205624 -3.203197 -1.142412
v 1.400554 -2.731388 -1.142412
v 1.492541 -2.828056 -1.142412
v 1.400554 -2.731388 1.041074
v 1.492541 -2.828056 1.041074
v 1.400554 -2.864522 -1.142412
v 1.492541 -2.961190 -1.142412
v 1.400554 -2.864522 1.041074
v 1.492541 -2.961190 1.041074
v 1.400554 -2.607297 -1.142412
v 1.492541 -2.703965 -1.142412
v 1.400554 -2.607297 1.041074
v 1.492541 -2.703965 1.041074
v 1.400554 -2.982504 -1.142412
v 1.492541 -3.079173 -1.142412
v 1.400554 -2.982504 1.041074
v 1.492542 -3.079173 1.041074
v 1.400554 -3.106529 -1.142412
v 1.492541 -3.203197 -1.142412
v 1.400554 -3.106529 1.041074
v 1.492541 -3.203197 1.041074
v 1.688931 2.396990 -1.353868
v 1.688931 2.238925 -1.277748
v 1.688931 2.199886 -1.106708
v 1.688931 2.309270 -0.969544
v 1.688931 2.484709 -0.969544
v 1.688931 2.594093 -1.106708
v 1.688931 2.555054 -1.277748
v 1.729115 2.396990 -1.353868
v 1.729115 2.238925 -1.277748
v 1.729115 2.199886 -1.106708
v 1.729115 2.309270 -0.969544
v 1.729115 2.484709 -0.969544
v 1.729115 2.594093 -1.106708
v 1.729115 2.555054 -1.277748
v 1.688931 2.246935 -0.802650
v 1.688931 2.203632 -0.781797
v 1.688931 2.192937 -0.734939
v 1.688931 2.222903 -0.697361
v 1.688931 2.270967 -0.697361
v 1.688931 2.300934 -0.734939
v 1.688931 2.290238 -0.781797
v 1.729115 2.246935 -0.802650
v 1.729115 2.203632 -0.781797
v 1.729115 2.192937 -0.734939
v 1.729115 2.222903 -0.697361
v 1.729115 2.270967 -0.697361
v 1.729115 2.300933 -0.734939
v 1.729115 2.290238 -0.781797
v 1.688931 2.248845 -0.951107
v 1.688931 2.205541 -0.930253
v 1.688931 2.194846 -0.883395
v 1.688931 2.224813 -0.845818
v 1.688931 2.272876 -0.845818
v 1.688931 2.302843 -0.883395
v 1.688931 2.292148 -0.930253
v 1.729115 2.248845 -0.951107
v 1.729115 2.205541 -0.930253
v 1.729115 2.194846 -0.883395
v 1.729115 2.224813 -0.845818
v 1.729115 2.272876 -0.845818
v 1.729115 2.302843 -0.883395
v 1.729115 2.292148 -0.930253
v 1.621246 2.204968 1.346245
v 1.621246 2.550914 1.346245
v 1.621246 2.204968 -0.471146
v 1.621246 2.550914 -0.471146
v 1.748951 2.204967 1.346245
v 1.748951 2.550914 1.346245
v 1.748951 2.204967 -0.471146
v 1.748951 2.550914 -0.471146
vn -0.0000 1.0000 -0.0000
vn 0.8964 0.4432 -0.0000
vn -0.1772 -0.9842 -0.0000
vn -0.0000 -0.0000 -1.0000
vn -0.0000 -1.0000 -0.0000
vn -0.0000 -0.0000 1.0000
vn -0.9963 0.0863 -0.0000
vn -0.1772 0.9842 -0.0000
vn 1.0000 -0.0000 -0.0000
vn -1.0000 -0.0000 -0.0000
vn -1.0000 -0.0005 -0.0019
vn -1.0000 -0.0006 0.0020
vn -1.0000 -0.0001 0.0003
vn -1.0000 -0.0001 -0.0003
vn -0.6622 0.1160 -0.7403
vn 0.6622 0.1160 0.7403
vn 0.1772 0.9842 -0.0000
vn 0.1772 -0.9842 -0.0000
vn -0.6622 0.1160 0.7403
vn 0.6622 0.1160 -0.7403
vn 0.6422 0.5420 0.5420
vn 0.6422 0.5420 -0.5420
vn -0.9788 0.1447 -0.1447
vn -0.9788 0.1447 0.1447
vn -0.0000 -0.7071 0.7071
vn -0.0000 -0.7071 -0.7071
vn -0.9997 -0.0227 -0.0000
vn 0.9917 -0.1283 -0.0000
vn -1.0000 -0.0009 0.0033
vn -1.0000 -0.0001 0.0005
vn 0.9998 -0.0053 -0.0178
vn -1.0000 -0.0009 -0.0031
vn -1.0000 -0.0001 -0.0005
vn 0.9998 -0.0053 0.0190
vn -0.7244 0.6893 -0.0000
vn -0.7244 0.6894 -0.0000
vn 0.7244 0.6893 -0.0000
vn -0.0000 -0.9749 0.2225
vn -0.0000 0.9749 0.2225
vn -0.0000 -0.4339 0.9010
vn -0.0000 -0.7818 -0.6235
vn -0.0000 0.7818 -0.6235
vn -0.0000 0.4339 0.9010
vt 0.618389 0.512887
vt 0.618389 0.237113
vt 0.618389 0.012887
vt 0.618389 0.737113
vt 0.620178 0.240601
vt 0.625000 0.236708
vt 0.625000 0.013292
vt 0.620178 0.009399
vt 0.125000 0.500000
vt 0.125000 0.750000
vt 0.375000 0.750000
vt 0.375000 0.500000
vt 0.375553 0.742169
vt 0.375553 0.507831
vt 0.375000 1.000000
vt 0.618181 1.000000
vt 0.618181 0.750000
vt 0.625000 0.513292
vt 0.625000 0.736708
vt 0.875000 0.736708
vt 0.875000 0.513292
vt 0.375000 0.250000
vt 0.618181 0.500000
vt 0.618181 0.250000
vt 0.620178 0.740601
vt 0.620178 0.509399
vt 0.381058 0.518560
vt 0.381058 0.731440
vt 0.381611 0.737113
vt 0.381611 0.012887
vt 0.381611 0.237113
vt 0.381611 0.512887
vt 0.375553 0.007831
vt 0.375000 0.000000
vt 0.375553 0.242169
vt 0.381058 0.231440
vt 0.381058 0.018560
vt 0.618181 0.000000
vt 0.621590 0.006646
vt 0.621590 0.243354
vt 0.621590 0.506646
vt 0.621590 0.743354
vt 0.625000 0.250000
vt 0.625000 0.500000
vt 0.625000 0.750000
vt 0.625000 1.000000
vt 0.499344 0.012887
vt 0.471059 0.012887
vt 0.471059 0.737113
vt 0.499344 0.737113
vt 0.410553 0.012887
vt 0.410553 0.737113
vt 0.440150 0.012887
vt 0.411865 0.012887
vt 0.411865 0.737113
vt 0.440150 0.737113
vt 0.530253 0.237113
vt 0.558538 0.237113
vt 0.558538 0.512887
vt 0.530253 0.512887
vt 0.589448 0.737113
vt 0.588135 0.737113
vt 0.559850 0.737113
vt 0.558538 0.737113
vt 0.530253 0.737113
vt 0.528941 0.737113
vt 0.500656 0.737113
vt 0.469747 0.737113
vt 0.441462 0.737113
vt 0.410552 0.737113
vt 0.500656 0.237113
vt 0.528941 0.237113
vt 0.528941 0.512887
vt 0.500656 0.512887
vt 0.471059 0.237113
vt 0.499344 0.237113
vt 0.499344 0.512887
vt 0.471059 0.512887
vt 0.441462 0.237113
vt 0.469747 0.237113
vt 0.469747 0.512887
vt 0.441462 0.512887
vt 0.411865 0.237113
vt 0.440150 0.237113
vt 0.440150 0.512887
vt 0.411865 0.512887
vt 0.410553 0.237113
vt 0.410553 0.512887
vt 0.589448 0.237113
vt 0.588135 0.237113
vt 0.559850 0.237113
vt 0.410552 0.237113
vt 0.559850 0.512887
vt 0.588135 0.512887
vt 0.589447 0.512887
vt 0.500656 0.012887
vt 0.528941 0.012887
vt 0.558538 0.012887
vt 0.530253 0.012887
vt 0.588135 0.012887
vt 0.559850 0.012887
vt 0.589448 0.012887
vt 0.441462 0.012887
vt 0.469747 0.012887
vt 0.589448 0.512887
vt 0.000000 0.000000
vt 0.000000 1.000000
vt 1.000000 1.000000
vt 1.000000 0.000000
vt 0.875000 0.750000
vt 0.875000 0.500000
s 1
f 8/1/1 4/2/1 2/3/1 6/4/1
f 34/5/2 32/6/2 30/7/2 31/8/2
f 13/9/1 14/10/1 15/11/1 16/12/1
f 12/13/3 23/13/3 24/14/3 11/14/3
f 15/11/4 14/15/4 29/16/4 39/17/4
f 36/18/5 38/19/5 30/20/5 32/21/5
f 13/22/6 16/12/6 35/23/6 33/24/6
f 40/25/7 38/19/7 36/18/7 37/26/7
f 7/27/8 28/27/8 27/28/8 5/28/8
f 19/29/5 18/30/5 17/31/5 20/32/5
f 10/33/9 14/34/9 13/22/9 9/35/9
f 11/14/10 16/12/11 15/11/12 12/13/10
f 3/36/9 17/31/9 18/30/9 1/37/9
f 5/28/10 19/29/13 20/32/14 7/27/10
f 1/37/9 18/30/9 14/34/9 10/33/9
f 9/35/9 13/22/9 17/31/9 3/36/9
f 7/27/10 20/32/14 16/12/11 11/14/10
f 12/13/10 15/11/12 19/29/13 5/28/10
f 26/37/9 22/33/9 21/35/9 25/36/9
f 28/27/10 24/14/10 23/13/10 27/28/10
f 11/14/15 24/14/15 28/27/15 7/27/15
f 10/33/16 22/33/16 26/37/16 1/37/16
f 1/37/17 26/37/17 25/36/17 3/36/17
f 9/35/18 21/35/18 22/33/18 10/33/18
f 5/28/19 27/28/19 23/13/19 12/13/19
f 3/36/20 25/36/20 21/35/20 9/35/20
f 29/38/21 31/8/21 30/39/21
f 32/40/22 34/5/22 33/24/22
f 35/23/23 37/26/23 36/41/23
f 38/42/24 40/25/24 39/17/24
f 32/43/25 33/24/25 35/23/25 36/44/25
f 38/45/26 39/17/26 29/16/26 30/46/26
f 90/47/6 91/48/6 74/49/6 75/50/6
f 96/51/6 18/30/6 19/29/6 69/52/6
f 6/4/27 40/25/27 37/26/27 8/1/27
f 4/2/28 34/5/28 31/8/28 2/3/28
f 94/53/6 95/54/6 70/55/6 71/56/6
f 64/57/4 65/58/4 44/59/4 45/60/4
f 19/29/13 15/11/12 39/17/29 40/25/29 6/4/29 82/61/30 81/62/30 80/63/30 79/64/30 78/65/30 77/66/30 76/67/30 75/50/30 74/49/30 73/68/30 72/69/30 71/56/30 70/55/30 69/70/30
f 62/71/4 63/72/4 46/73/4 47/74/4
f 60/75/4 61/76/4 48/77/4 49/78/4
f 58/79/4 59/80/4 50/81/4 51/82/4
f 56/83/4 57/84/4 52/85/4 53/86/4
f 17/31/4 55/87/4 54/88/4 20/32/4
f 17/31/31 13/22/31 33/24/31 34/5/31 4/2/31 68/89/31 67/90/31 66/91/31 65/58/31 64/57/31 63/72/31 62/71/31 61/76/31 60/75/31 59/80/31 58/79/31 57/84/31 56/83/31 55/92/31
f 8/1/32 37/26/32 35/23/32 16/12/11 20/32/14 54/88/33 53/86/33 52/85/33 51/82/33 50/81/33 49/78/33 48/77/33 47/74/33 46/73/33 45/60/33 44/59/33 43/93/33 42/94/33 41/95/33
f 89/96/5 62/71/5 47/74/5 76/67/5
f 88/97/6 89/96/6 76/67/6 77/66/6
f 86/98/6 87/99/6 78/65/6 79/64/6
f 84/100/6 85/101/6 80/63/6 81/62/6
f 2/3/6 83/102/6 82/61/6 6/4/6
f 2/3/34 31/8/34 29/38/34 14/34/34 18/30/34 96/51/34 95/54/34 94/53/34 93/103/34 92/104/34 91/48/34 90/47/34 89/96/34 88/97/34 87/99/34 86/98/34 85/101/34 84/100/34 83/102/34
f 92/104/6 93/103/6 72/69/6 73/68/6
f 68/89/4 4/2/4 8/1/4 41/105/4
f 90/47/9 61/76/9 62/71/9 89/96/9
f 75/50/1 48/77/1 61/76/1 90/47/1
f 78/65/30 45/60/33 46/73/33 77/66/30
f 87/99/5 64/57/5 45/60/5 78/65/5
f 88/97/9 63/72/9 64/57/9 87/99/9
f 77/66/1 46/73/1 63/72/1 88/97/1
f 80/63/30 43/93/33 44/59/33 79/64/30
f 85/101/5 66/91/5 43/93/5 80/63/5
f 86/98/9 65/58/9 66/91/9 85/101/9
f 79/64/1 44/59/1 65/58/1 86/98/1
f 82/61/30 41/95/33 42/94/33 81/62/30
f 83/102/5 68/89/5 41/105/5 82/61/5
f 84/100/9 67/90/9 68/89/9 83/102/9
f 81/62/1 42/94/1 67/90/1 84/100/1
f 66/91/4 67/90/4 42/94/4 43/93/4
f 76/67/30 47/74/33 48/77/33 75/50/30
f 73/68/1 50/81/1 59/80/1 92/104/1
f 92/104/9 59/80/9 60/75/9 91/48/9
f 91/48/5 60/75/5 49/78/5 74/49/5
f 74/49/30 49/78/33 50/81/33 73/68/30
f 71/56/1 52/85/1 57/84/1 94/53/1
f 94/53/9 57/84/9 58/79/9 93/103/9
f 93/103/5 58/79/5 51/82/5 72/69/5
f 72/69/30 51/82/33 52/85/33 71/56/30
f 69/52/1 54/88/1 55/87/1 96/51/1
f 96/51/9 55/92/9 56/83/9 95/54/9
f 95/54/5 56/83/5 53/86/5 70/55/5
f 70/55/30 53/86/33 54/88/33 69/70/30
f 97/106/35 99/107/35 100/108/35 98/109/35
f 101/106/35 103/107/35 104/108/35 102/109/35
f 105/106/36 107/107/36 108/108/36 106/109/36
f 109/106/35 111/107/35 112/108/35 110/109/35
f 113/106/35 115/107/35 116/108/35 114/109/35
f 117/106/36 119/107/36 120/108/36 118/109/36
f 121/106/36 123/107/36 124/108/36 122/109/36
f 125/106/35 127/107/35 128/108/35 126/109/35
f 129/106/37 131/107/37 132/108/37 130/109/37
f 133/106/37 135/107/37 136/108/37 134/109/37
f 137/106/37 139/107/37 140/108/37 138/109/37
f 141/106/37 143/107/37 144/108/37 142/109/37
f 145/106/37 147/107/37 148/108/37 146/109/37
f 155/106/38 162/106/38 161/106/38 154/106/38
f 153/106/4 160/106/4 159/106/4 152/106/4
f 151/106/39 158/106/39 157/106/39 150/106/39
f 149/106/40 156/106/40 162/106/40 155/106/40
f 154/106/41 161/106/41 160/106/41 153/106/41
f 152/106/42 159/106/42 158/106/42 151/106/42
f 150/106/43 157/106/43 156/106/43 149/106/43
f 157/106/10 158/106/10 159/106/10 160/106/10 161/106/10 162/106/10 156/106/10
f 169/106/38 176/106/38 175/106/38 168/106/38
f 167/106/4 174/106/4 173/106/4 166/106/4
f 165/106/39 172/106/39 171/106/39 164/106/39
f 163/106/40 170/106/40 176/106/40 169/106/40
f 168/106/41 175/106/41 174/106/41 167/106/41
f 166/106/42 173/106/42 172/106/42 165/106/42
f 164/106/43 171/106/43 170/106/43 163/106/43
f 171/106/10 172/106/10 173/106/10 174/106/10 175/106/10 176/106/10 170/106/10
f 183/106/38 190/106/38 189/106/38 182/106/38
f 181/106/4 188/106/4 187/106/4 180/106/4
f 179/106/39 186/106/39 185/106/39 178/106/39
f 177/106/40 184/106/40 190/106/40 183/106/40
f 182/106/41 189/106/41 188/106/41 181/106/41
f 180/106/42 187/106/42 186/106/42 179/106/42
f 178/106/43 185/106/43 184/106/43 177/106/43
f 185/106/10 186/106/10 187/106/10 188/106/10 189/106/10 190/106/10 184/106/10
f 193/22/6 197/12/6 198/44/6 194/43/6
f 197/12/10 195/11/10 196/45/10 198/44/10
f 195/11/4 191/15/4 192/46/4 196/45/4
f 193/9/1 191/10/1 195/11/1 197/12/1
f 198/44/5 196/45/5 192/110/5 194/111/5
o Plane.018
