# Blender 4.3.2
# www.blender.org
mtllib rack.mtl
o Cube
v -2.418334 -1.481906 2.025698
v -2.418334 6.047991 2.135452
v -2.418334 -1.481906 -2.092817
v -2.418334 6.047991 -2.202570
v 2.418334 -1.481906 2.025698
v 2.418334 6.047991 2.135452
v 2.418334 -1.481906 -2.092817
v 2.418334 6.047991 -2.202570
v -2.418334 -2.764283 -2.300395
v -2.418334 -2.764283 2.233275
v 2.418334 -2.764283 -2.300395
v 2.418334 -2.764283 2.233275
v -2.418334 -2.893231 -2.451894
v -2.418334 -2.893231 2.384775
v 2.418334 -2.893231 2.384775
v 2.418334 -2.893231 -2.451894
v -2.418334 -1.352958 -2.202570
v -2.418334 -1.352958 2.135452
v 2.418334 -1.352958 2.135452
v 2.418334 -1.352958 -2.202570
v -1.962212 -2.682142 -1.872846
v -1.962212 -2.682142 1.805727
v 1.962212 -2.682142 1.805727
v 1.962212 -2.682142 -1.872846
v -1.962212 -1.564047 -1.704420
v -1.962212 -1.564047 1.637301
v 1.962212 -1.564047 1.637301
v 1.962212 -1.564047 -1.704420
v -2.418334 6.277400 2.384775
v -2.418334 6.534559 2.127615
v -2.328436 6.352720 2.202936
v -2.418334 6.534559 -2.194734
v -2.418334 6.277400 -2.451894
v -2.328436 6.352720 -2.270054
v 2.418334 6.277400 -2.451894
v 2.418334 6.534559 -2.194734
v 2.402583 6.352720 -2.270054
v 2.418334 6.534559 2.127615
v 2.418334 6.277400 2.384775
v 2.402583 6.352720 2.202936
v -2.418334 0.213961 2.135452
v -2.418334 0.135400 2.135452
v -2.418334 1.741600 2.135452
v -2.418334 1.663039 2.135452
v -2.418334 3.269239 2.135452
v -2.418334 3.190678 2.135452
v -2.418334 4.796877 2.135452
v -2.418334 4.718317 2.135452
v 2.418334 4.718317 2.135452
v 2.418334 4.796877 2.135452
v 2.418334 3.190678 2.135452
v 2.418334 3.269239 2.135452
v 2.418334 1.663039 2.135452
v 2.418334 1.741600 2.135452
v 2.418334 0.135400 2.135452
v 2.418334 0.213961 2.135452
v -2.418334 4.718317 -2.202570
v -2.418334 4.796877 -2.202570
v -2.418334 3.190678 -2.202570
v -2.418334 3.269239 -2.202570
v -2.418334 1.663039 -2.202570
v -2.418334 1.741600 -2.202570
v -2.418334 0.135400 -2.202570
v -2.418334 0.213961 -2.202570
v 2.418334 4.796877 -2.202570
v 2.418334 4.718317 -2.202570
v 2.418334 3.269239 -2.202570
v 2.418334 3.190678 -2.202570
v 2.418334 1.741600 -2.202570
v 2.418334 1.663039 -2.202570
v 2.418334 0.213961 -2.202570
v 2.418334 0.135400 -2.202570
vn -0.0000 -1.0000 -0.0000
vn -0.0000 -0.0000 1.0000
vn -0.8964 -0.4432 -0.0000
vn 0.1772 0.9842 -0.0000
vn -0.0000 1.0000 -0.0000
vn -0.0000 -0.0000 -1.0000
vn 0.9963 -0.0863 -0.0000
vn 0.1772 -0.9842 -0.0000
vn -1.0000 0.0053 0.0049
vn -1.0000 -0.0000 -0.0000
vn 1.0000 -0.0000 -0.0000
vn 0.6622 -0.1160 0.7403
vn -0.6622 -0.1160 -0.7403
vn -0.1772 -0.9842 -0.0000
vn -0.1772 0.9842 -0.0000
vn 0.6622 -0.1160 -0.7403
vn -0.6622 -0.1160 0.7403
vn -0.6422 -0.5420 -0.5420
vn -0.6422 -0.5420 0.5420
vn 0.9788 -0.1447 0.1447
vn 0.9788 -0.1447 -0.1447
vn -0.0000 0.7071 -0.7071
vn -0.0000 0.7071 0.7071
vn 1.0000 0.0009 -0.0009
vn 1.0000 0.0009 0.0009
vn -1.0000 0.0053 -0.0049
vn 0.9987 0.0516 -0.0000
vn -0.9591 0.2830 -0.0000
vt 0.618389 0.512887
vt 0.618389 0.737113
vt 0.618389 0.012887
vt 0.618389 0.237113
vt 0.477540 0.512887
vt 0.522460 0.512887
vt 0.522460 0.237113
vt 0.477540 0.237113
vt 0.620178 0.240601
vt 0.620178 0.009399
vt 0.625000 0.013292
vt 0.625000 0.236708
vt 0.125000 0.500000
vt 0.375000 0.500000
vt 0.375000 0.750000
vt 0.125000 0.750000
vt 0.524895 0.512887
vt 0.569816 0.512887
vt 0.569816 0.237113
vt 0.524895 0.237113
vt 0.375553 0.742169
vt 0.375553 0.507831
vt 0.618181 0.750000
vt 0.618181 1.000000
vt 0.375000 1.000000
vt 0.625000 0.513292
vt 0.875000 0.513292
vt 0.875000 0.736708
vt 0.625000 0.736708
vt 0.375000 0.250000
vt 0.618181 0.250000
vt 0.618181 0.500000
vt 0.620178 0.740601
vt 0.620178 0.509399
vt 0.381058 0.518560
vt 0.381058 0.731440
vt 0.381611 0.237113
vt 0.427749 0.237113
vt 0.430184 0.237113
vt 0.475105 0.237113
vt 0.572251 0.237113
vt 0.620178 0.240601
vt 0.618181 0.250000
vt 0.522460 0.737113
vt 0.477540 0.737113
vt 0.477540 0.012887
vt 0.522460 0.012887
vt 0.381611 0.737113
vt 0.381611 0.512887
vt 0.381611 0.012887
vt 0.375553 0.007831
vt 0.375553 0.242169
vt 0.375000 0.000000
vt 0.381058 0.231440
vt 0.381058 0.018560
vt 0.618181 0.000000
vt 0.621590 0.006646
vt 0.621590 0.243354
vt 0.618181 0.500000
vt 0.621590 0.506646
vt 0.621590 0.743354
vt 0.618181 0.750000
vt 0.620178 0.740601
vt 0.625000 0.250000
vt 0.625000 0.500000
vt 0.625000 0.750000
vt 0.625000 1.000000
vt 0.475105 0.737113
vt 0.430184 0.737113
vt 0.430185 0.012887
vt 0.475105 0.012887
vt 0.427749 0.737113
vt 0.524895 0.737113
vt 0.569816 0.737113
vt 0.572251 0.737113
vt 0.572251 0.012887
vt 0.524895 0.012887
vt 0.569816 0.012887
vt 0.427749 0.737113
vt 0.427749 0.012887
vt 0.572251 0.512887
vt 0.475105 0.512887
vt 0.430184 0.512887
vt 0.427749 0.512887
vt 0.427749 0.512887
vt 0.427749 0.237113
vt 0.572251 0.012887
vt 0.569816 0.012887
vt 0.524895 0.012887
vt 0.522460 0.012887
s 0
f 8/1/1 6/2/1 2/3/1 4/4/1
f 69/5/2 68/6/2 59/7/2 62/8/2
f 34/9/3 31/10/3 30/11/3 32/12/3
f 13/13/1 16/14/1 15/15/1 14/16/1
f 67/17/2 66/18/2 57/19/2 60/20/2
f 12/21/4 11/22/4 24/22/4 23/21/4
f 15/15/2 39/23/2 29/24/2 14/25/2
f 36/26/5 32/27/5 30/28/5 38/29/5
f 13/30/6 33/31/6 35/32/6 16/14/6
f 40/33/7 37/34/7 36/26/7 38/29/7
f 7/35/8 5/36/8 27/36/8 28/35/8
f 17/37/9 63/38/9 64/39/9 61/40/9 62/8/9 59/7/9 60/20/9 57/19/9 58/41/9 4/4/9 34/42/9 33/43/9 13/30/9
f 51/44/6 54/45/6 43/46/6 46/47/6
f 19/48/5 20/49/5 17/37/5 18/50/5
f 10/51/10 9/52/10 13/30/10 14/53/10
f 11/22/11 12/21/11 15/15/11 16/14/11
f 3/54/10 1/55/10 18/50/10 17/37/10
f 5/36/11 7/35/11 20/49/11 19/48/11
f 1/55/10 10/51/10 14/53/10 18/50/10
f 9/52/10 3/54/10 17/37/10 13/30/10
f 7/35/11 11/22/11 16/14/11 20/49/11
f 12/21/11 5/36/11 19/48/11 15/15/11
f 26/55/10 25/54/10 21/52/10 22/51/10
f 28/35/11 27/36/11 23/21/11 24/22/11
f 11/22/12 7/35/12 28/35/12 24/22/12
f 10/51/13 1/55/13 26/55/13 22/51/13
f 1/55/14 3/54/14 25/54/14 26/55/14
f 9/52/15 10/51/15 22/51/15 21/52/15
f 5/36/16 12/21/16 23/21/16 27/36/16
f 3/54/17 9/52/17 21/52/17 25/54/17
f 29/56/18 30/57/18 31/10/18
f 32/58/19 33/43/19 34/42/19
f 35/59/20 36/60/20 37/34/20
f 38/61/21 39/62/21 40/63/21
f 32/64/22 36/65/22 35/32/22 33/31/22
f 38/66/23 30/67/23 29/24/23 39/23/23
f 53/68/6 56/69/6 41/70/6 44/71/6
f 19/48/24 55/72/24 56/69/24 53/68/24 54/45/24 51/44/24 52/73/24 49/74/24 50/75/24 6/2/24 40/63/24 39/62/24 15/15/24
f 6/2/6 50/75/6 47/76/6 2/3/6
f 49/74/6 52/73/6 45/77/6 48/78/6
f 55/79/6 19/48/6 18/50/6 42/80/6
f 8/1/25 65/81/25 66/18/25 67/17/25 68/6/25 69/5/25 70/82/25 71/83/25 72/84/25 20/49/25 16/14/25 35/59/25 37/34/25
f 20/49/2 72/85/2 63/86/2 17/37/2
f 71/83/2 70/82/2 61/40/2 64/39/2
f 65/81/2 8/1/2 4/4/2 58/41/2
f 70/82/11 69/5/11 54/45/11 53/68/11
f 61/40/1 70/82/1 53/68/1 44/71/1
f 62/8/10 61/40/10 44/71/10 43/46/10
f 69/5/5 62/8/5 43/46/5 54/45/5
f 72/84/11 71/83/11 56/69/11 55/72/11
f 63/86/1 72/85/1 55/79/1 42/80/1
f 64/39/10 63/38/10 42/80/10 41/70/10
f 71/83/5 64/39/5 41/70/5 56/69/5
f 2/3/26 47/87/26 48/88/26 45/89/26 46/90/26 43/46/26 44/71/26 41/70/26 42/80/26 18/50/26 14/53/26 29/56/26 31/10/26
f 67/17/5 60/20/5 45/77/5 52/73/5
f 60/20/10 59/7/10 46/90/10 45/89/10
f 59/7/1 68/6/1 51/44/1 46/47/1
f 68/6/11 67/17/11 52/73/11 51/44/11
f 65/81/5 58/41/5 47/76/5 50/75/5
f 58/41/10 57/19/10 48/88/10 47/87/10
f 57/19/1 66/18/1 49/74/1 48/78/1
f 66/18/11 65/81/11 50/75/11 49/74/11
f 6/2/27 8/1/27 37/34/27 40/33/27
f 4/4/28 2/3/28 31/10/28 34/9/28
o Cube.002
v -2.132773 -1.220429 1.810842
v -2.132773 -0.059265 1.810842
v -2.132773 -1.220429 -1.795604
v -2.132773 -0.059265 -1.795604
v 1.868153 -1.154992 1.743305
v 1.868153 -0.124702 1.743305
v 1.868153 -1.154992 -1.728067
v 1.868153 -0.124702 -1.728067
v 1.982580 0.034102 -2.085591
v 1.982580 -1.313796 -2.085591
v 1.982580 -1.313796 2.100829
v 1.982580 0.034102 2.100829
v -2.203840 -1.313796 -2.085591
v -2.203840 -1.313796 2.100829
v -2.203840 0.034102 2.100829
v -2.203840 0.034102 -2.085591
v 1.868153 -0.036803 -2.012410
v 1.868153 -1.242891 -2.012410
v 1.868153 -1.242891 2.027648
v 1.868153 -0.036803 2.027648
vn -1.0000 -0.0000 -0.0000
vn -0.0000 -0.0000 -1.0000
vn 1.0000 -0.0000 -0.0000
vn -0.0000 -0.0000 1.0000
vn -0.0000 -1.0000 -0.0000
vn -0.0000 1.0000 -0.0000
vn 0.5388 -0.0000 0.8424
vn 0.5267 0.8500 -0.0000
vn 0.5267 -0.8500 -0.0000
vn 0.5388 -0.0000 -0.8424
vn -0.7957 0.6057 -0.0000
vn -0.9713 -0.0000 -0.2380
vn -0.7957 -0.6057 -0.0000
vn -0.9713 -0.0000 0.2380
vt 0.383318 0.008318
vt 0.616682 0.008318
vt 0.616682 0.241682
vt 0.383318 0.241681
vt 0.375000 0.250000
vt 0.625000 0.250000
vt 0.625000 0.500000
vt 0.375000 0.500000
vt 0.396469 0.520864
vt 0.603531 0.520864
vt 0.603531 0.729136
vt 0.396469 0.729136
vt 0.375000 0.750000
vt 0.625000 0.750000
vt 0.625000 1.000000
vt 0.375000 1.000000
vt 0.125000 0.500000
vt 0.125000 0.750000
vt 0.875000 0.500000
vt 0.875000 0.750000
vt 0.611849 0.513151
vt 0.388151 0.513151
vt 0.388151 0.736849
vt 0.611849 0.736849
vt 0.375000 0.000000
vt 0.625000 0.000000
s 0
f 73/91/29 74/92/29 76/93/29 75/94/29
f 85/95/30 88/96/30 81/97/30 82/98/30
f 79/99/31 80/100/31 78/101/31 77/102/31
f 83/103/32 84/104/32 87/105/32 86/106/32
f 85/107/33 82/98/33 83/103/33 86/108/33
f 81/97/34 88/109/34 87/110/34 84/104/34
f 89/111/35 90/112/35 82/98/35 81/97/35
f 90/112/36 91/113/36 83/103/36 82/98/36
f 92/114/37 89/111/37 81/97/37 84/104/37
f 91/113/38 92/114/38 84/104/38 83/103/38
f 73/91/39 75/94/39 85/95/39 86/115/39
f 74/92/40 73/91/40 86/115/40 87/116/40
f 76/93/41 74/92/41 87/116/41 88/96/41
f 75/94/42 76/93/42 88/96/42 85/95/42
f 80/100/31 79/99/31 90/112/31 89/111/31
f 79/99/31 77/102/31 91/113/31 90/112/31
f 78/101/31 80/100/31 89/111/31 92/114/31
f 77/102/31 78/101/31 92/114/31 91/113/31
o Cube.003
v -2.132773 0.288406 1.810842
v -2.132773 1.449569 1.810842
v -2.132773 0.288406 -1.795604
v -2.132773 1.449569 -1.795604
v 1.868153 0.353842 1.743305
v 1.868153 1.384133 1.743305
v 1.868153 0.353842 -1.728067
v 1.868153 1.384133 -1.728067
v 1.982580 1.542936 -2.085591
v 1.982580 0.195039 -2.085591
v 1.982580 0.195039 2.100829
v 1.982580 1.542936 2.100829
v -2.203840 0.195039 -2.085591
v -2.203840 0.195039 2.100829
v -2.203840 1.542936 2.100829
v -2.203840 1.542936 -2.085591
v 1.868153 1.472031 -2.012410
v 1.868153 0.265944 -2.012410
v 1.868153 0.265944 2.027648
v 1.868153 1.472031 2.027648
vn -1.0000 -0.0000 -0.0000
vn -0.0000 -0.0000 -1.0000
vn 1.0000 -0.0000 -0.0000
vn -0.0000 -0.0000 1.0000
vn -0.0000 -1.0000 -0.0000
vn -0.0000 1.0000 -0.0000
vn 0.5388 -0.0000 0.8424
vn 0.5267 0.8500 -0.0000
vn 0.5267 -0.8500 -0.0000
vn 0.5388 -0.0000 -0.8424
vn -0.7957 0.6057 -0.0000
vn -0.9713 -0.0000 -0.2380
vn -0.7957 -0.6057 -0.0000
vn -0.9713 -0.0000 0.2380
vt 0.383318 0.008318
vt 0.616682 0.008318
vt 0.616682 0.241682
vt 0.383318 0.241681
vt 0.375000 0.250000
vt 0.625000 0.250000
vt 0.625000 0.500000
vt 0.375000 0.500000
vt 0.396469 0.520864
vt 0.603531 0.520864
vt 0.603531 0.729136
vt 0.396469 0.729136
vt 0.375000 0.750000
vt 0.625000 0.750000
vt 0.625000 1.000000
vt 0.375000 1.000000
vt 0.125000 0.500000
vt 0.125000 0.750000
vt 0.875000 0.500000
vt 0.875000 0.750000
vt 0.611849 0.513151
vt 0.388151 0.513151
vt 0.388151 0.736849
vt 0.611849 0.736849
vt 0.375000 0.000000
vt 0.625000 0.000000
s 0
f 93/117/43 94/118/43 96/119/43 95/120/43
f 105/121/44 108/122/44 101/123/44 102/124/44
f 99/125/45 100/126/45 98/127/45 97/128/45
f 103/129/46 104/130/46 107/131/46 106/132/46
f 105/133/47 102/124/47 103/129/47 106/134/47
f 101/123/48 108/135/48 107/136/48 104/130/48
f 109/137/49 110/138/49 102/124/49 101/123/49
f 110/138/50 111/139/50 103/129/50 102/124/50
f 112/140/51 109/137/51 101/123/51 104/130/51
f 111/139/52 112/140/52 104/130/52 103/129/52
f 93/117/53 95/120/53 105/121/53 106/141/53
f 94/118/54 93/117/54 106/141/54 107/142/54
f 96/119/55 94/118/55 107/142/55 108/122/55
f 95/120/56 96/119/56 108/122/56 105/121/56
f 100/126/45 99/125/45 110/138/45 109/137/45
f 99/125/45 97/128/45 111/139/45 110/138/45
f 98/127/45 100/126/45 109/137/45 112/140/45
f 97/128/45 98/127/45 112/140/45 111/139/45
o Cube.004
v -2.132773 1.856625 1.810842
v -2.132773 3.017788 1.810842
v -2.132773 1.856625 -1.795604
v -2.132773 3.017788 -1.795604
v 1.868153 1.922061 1.743305
v 1.868153 2.952352 1.743305
v 1.868153 1.922061 -1.728067
v 1.868153 2.952352 -1.728067
v 1.982580 3.111155 -2.085591
v 1.982580 1.763258 -2.085591
v 1.982580 1.763258 2.100829
v 1.982580 3.111155 2.100829
v -2.203840 1.763258 -2.085591
v -2.203840 1.763258 2.100829
v -2.203840 3.111155 2.100829
v -2.203840 3.111155 -2.085591
v 1.868153 3.040251 -2.012410
v 1.868153 1.834163 -2.012410
v 1.868153 1.834163 2.027648
v 1.868153 3.040251 2.027648
vn -1.0000 -0.0000 -0.0000
vn -0.0000 -0.0000 -1.0000
vn 1.0000 -0.0000 -0.0000
vn -0.0000 -0.0000 1.0000
vn -0.0000 -1.0000 -0.0000
vn -0.0000 1.0000 -0.0000
vn 0.5388 -0.0000 0.8424
vn 0.5267 0.8500 -0.0000
vn 0.5267 -0.8500 -0.0000
vn 0.5388 -0.0000 -0.8424
vn -0.7957 0.6057 -0.0000
vn -0.9713 -0.0000 -0.2380
vn -0.7957 -0.6057 -0.0000
vn -0.9713 -0.0000 0.2380
vt 0.383318 0.008318
vt 0.616682 0.008318
vt 0.616682 0.241682
vt 0.383318 0.241681
vt 0.375000 0.250000
vt 0.625000 0.250000
vt 0.625000 0.500000
vt 0.375000 0.500000
vt 0.396469 0.520864
vt 0.603531 0.520864
vt 0.603531 0.729136
vt 0.396469 0.729136
vt 0.375000 0.750000
vt 0.625000 0.750000
vt 0.625000 1.000000
vt 0.375000 1.000000
vt 0.125000 0.500000
vt 0.125000 0.750000
vt 0.875000 0.500000
vt 0.875000 0.750000
vt 0.611849 0.513151
vt 0.388151 0.513151
vt 0.388151 0.736849
vt 0.611849 0.736849
vt 0.375000 0.000000
vt 0.625000 0.000000
s 0
f 113/143/57 114/144/57 116/145/57 115/146/57
f 125/147/58 128/148/58 121/149/58 122/150/58
f 119/151/59 120/152/59 118/153/59 117/154/59
f 123/155/60 124/156/60 127/157/60 126/158/60
f 125/159/61 122/150/61 123/155/61 126/160/61
f 121/149/62 128/161/62 127/162/62 124/156/62
f 129/163/63 130/164/63 122/150/63 121/149/63
f 130/164/64 131/165/64 123/155/64 122/150/64
f 132/166/65 129/163/65 121/149/65 124/156/65
f 131/165/66 132/166/66 124/156/66 123/155/66
f 113/143/67 115/146/67 125/147/67 126/167/67
f 114/144/68 113/143/68 126/167/68 127/168/68
f 116/145/69 114/144/69 127/168/69 128/148/69
f 115/146/70 116/145/70 128/148/70 125/147/70
f 120/152/59 119/151/59 130/164/59 129/163/59
f 119/151/59 117/154/59 131/165/59 130/164/59
f 118/153/59 120/152/59 129/163/59 132/166/59
f 117/154/59 118/153/59 132/166/59 131/165/59
o Cube.005
v -2.132773 3.365459 1.810842
v -2.132773 4.526623 1.810842
v -2.132773 3.365459 -1.795604
v -2.132773 4.526623 -1.795604
v 1.868153 3.430896 1.743305
v 1.868153 4.461186 1.743305
v 1.868153 3.430896 -1.728067
v 1.868153 4.461186 -1.728067
v 1.982580 4.619990 -2.085591
v 1.982580 3.272093 -2.085591
v 1.982580 3.272093 2.100829
v 1.982580 4.619990 2.100829
v -2.203840 3.272093 -2.085591
v -2.203840 3.272093 2.100829
v -2.203840 4.619990 2.100829
v -2.203840 4.619990 -2.085591
v 1.868153 4.549085 -2.012410
v 1.868153 3.342997 -2.012410
v 1.868153 3.342997 2.027648
v 1.868153 4.549085 2.027648
vn -1.0000 -0.0000 -0.0000
vn -0.0000 -0.0000 -1.0000
vn 1.0000 -0.0000 -0.0000
vn -0.0000 -0.0000 1.0000
vn -0.0000 -1.0000 -0.0000
vn -0.0000 1.0000 -0.0000
vn 0.5388 -0.0000 0.8424
vn 0.5267 0.8500 -0.0000
vn 0.5267 -0.8500 -0.0000
vn 0.5388 -0.0000 -0.8424
vn -0.7957 0.6057 -0.0000
vn -0.9713 -0.0000 -0.2380
vn -0.7957 -0.6057 -0.0000
vn -0.9713 -0.0000 0.2380
vt 0.383318 0.008318
vt 0.616682 0.008318
vt 0.616682 0.241682
vt 0.383318 0.241681
vt 0.375000 0.250000
vt 0.625000 0.250000
vt 0.625000 0.500000
vt 0.375000 0.500000
vt 0.396469 0.520864
vt 0.603531 0.520864
vt 0.603531 0.729136
vt 0.396469 0.729136
vt 0.375000 0.750000
vt 0.625000 0.750000
vt 0.625000 1.000000
vt 0.375000 1.000000
vt 0.125000 0.500000
vt 0.125000 0.750000
vt 0.875000 0.500000
vt 0.875000 0.750000
vt 0.611849 0.513151
vt 0.388151 0.513151
vt 0.388151 0.736849
vt 0.611849 0.736849
vt 0.375000 0.000000
vt 0.625000 0.000000
s 0
f 133/169/71 134/170/71 136/171/71 135/172/71
f 145/173/72 148/174/72 141/175/72 142/176/72
f 139/177/73 140/178/73 138/179/73 137/180/73
f 143/181/74 144/182/74 147/183/74 146/184/74
f 145/185/75 142/176/75 143/181/75 146/186/75
f 141/175/76 148/187/76 147/188/76 144/182/76
f 149/189/77 150/190/77 142/176/77 141/175/77
f 150/190/78 151/191/78 143/181/78 142/176/78
f 152/192/79 149/189/79 141/175/79 144/182/79
f 151/191/80 152/192/80 144/182/80 143/181/80
f 133/169/81 135/172/81 145/173/81 146/193/81
f 134/170/82 133/169/82 146/193/82 147/194/82
f 136/171/83 134/170/83 147/194/83 148/174/83
f 135/172/84 136/171/84 148/174/84 145/173/84
f 140/178/73 139/177/73 150/190/73 149/189/73
f 139/177/73 137/180/73 151/191/73 150/190/73
f 138/179/73 140/178/73 149/189/73 152/192/73
f 137/180/73 138/179/73 152/192/73 151/191/73
o Cube.006
v -1.859351 4.871988 1.567021
v -1.859351 5.876146 1.567021
v -1.859351 4.871988 -1.551783
v -1.859351 5.876146 -1.551783
v 1.600594 4.928576 1.508616
v 1.600594 5.819557 1.508616
v 1.600594 4.928576 -1.493378
v 1.600594 5.819557 -1.493378
v 1.699549 5.956888 -1.802560
v 1.699549 4.791245 -1.802560
v 1.699549 4.791245 1.817798
v 1.699549 5.956888 1.817798
v -1.920809 4.791245 -1.802560
v -1.920809 4.791245 1.817798
v -1.920809 5.956888 1.817798
v -1.920809 5.956888 -1.802560
v 1.600594 5.895571 -1.739274
v 1.600594 4.852563 -1.739274
v 1.600594 4.852563 1.754512
v 1.600594 5.895571 1.754512
vn -1.0000 -0.0000 -0.0000
vn -0.0000 -0.0000 -1.0000
vn 1.0000 -0.0000 -0.0000
vn -0.0000 -0.0000 1.0000
vn -0.0000 -1.0000 -0.0000
vn -0.0000 1.0000 -0.0000
vn 0.5388 -0.0000 0.8424
vn 0.5267 0.8500 -0.0000
vn 0.5267 -0.8500 -0.0000
vn 0.5388 -0.0000 -0.8424
vn -0.7957 0.6057 -0.0000
vn -0.9713 -0.0000 -0.2380
vn -0.7957 -0.6057 -0.0000
vn -0.9713 -0.0000 0.2380
vt 0.383318 0.008318
vt 0.616682 0.008318
vt 0.616682 0.241682
vt 0.383318 0.241681
vt 0.375000 0.250000
vt 0.625000 0.250000
vt 0.625000 0.500000
vt 0.375000 0.500000
vt 0.396469 0.520864
vt 0.603531 0.520864
vt 0.603531 0.729136
vt 0.396469 0.729136
vt 0.375000 0.750000
vt 0.625000 0.750000
vt 0.625000 1.000000
vt 0.375000 1.000000
vt 0.125000 0.500000
vt 0.125000 0.750000
vt 0.875000 0.500000
vt 0.875000 0.750000
vt 0.611849 0.513151
vt 0.388151 0.513151
vt 0.388151 0.736849
vt 0.611849 0.736849
vt 0.375000 0.000000
vt 0.625000 0.000000
s 0
f 153/195/85 154/196/85 156/197/85 155/198/85
f 165/199/86 168/200/86 161/201/86 162/202/86
f 159/203/87 160/204/87 158/205/87 157/206/87
f 163/207/88 164/208/88 167/209/88 166/210/88
f 165/211/89 162/202/89 163/207/89 166/212/89
f 161/201/90 168/213/90 167/214/90 164/208/90
f 169/215/91 170/216/91 162/202/91 161/201/91
f 170/216/92 171/217/92 163/207/92 162/202/92
f 172/218/93 169/215/93 161/201/93 164/208/93
f 171/217/94 172/218/94 164/208/94 163/207/94
f 153/195/95 155/198/95 165/199/95 166/219/95
f 154/196/96 153/195/96 166/219/96 167/220/96
f 156/197/97 154/196/97 167/220/97 168/200/97
f 155/198/98 156/197/98 168/200/98 165/199/98
f 160/204/87 159/203/87 170/216/87 169/215/87
f 159/203/87 157/206/87 171/217/87 170/216/87
f 158/205/87 160/204/87 169/215/87 172/218/87
f 157/206/87 158/205/87 172/218/87 171/217/87
